<svg width="20" height="20" viewBox="0 0 20 20" fill="none" xmlns="http://www.w3.org/2000/svg">
<path d="M14.3746 8.12481H18.1246M18.1246 8.12481V4.37481M18.1246 8.12481L14.8613 5.13809C13.9058 4.18263 12.6899 3.52991 11.3656 3.26151C10.0413 2.9931 8.66723 3.12091 7.41512 3.62896C6.16301 4.137 5.08838 5.00276 4.3255 6.11806C3.56262 7.23336 3.14531 8.54875 3.12572 9.89986C3.10614 11.251 3.48513 12.5779 4.21537 13.7148C4.9456 14.8518 5.99468 15.7483 7.23153 16.2925C8.46838 16.8366 9.83816 17.0042 11.1697 16.7743C12.5013 16.5444 13.7355 15.9272 14.7183 14.9998" stroke="white" stroke-width="2" stroke-linecap="round" stroke-linejoin="round"/>
</svg>
