<svg width="24" height="24" viewBox="0 0 24 24" fill="none" xmlns="http://www.w3.org/2000/svg">
<path d="M12 18.75V22.5M4.5 4.5L19.5 21M16.155 17.3203C15.1582 18.0989 13.9627 18.5817 12.7047 18.7138C11.4468 18.8458 10.1771 18.6218 9.04028 18.0672C7.90351 17.5126 6.94543 16.6497 6.27528 15.577C5.60513 14.5043 5.24987 13.2648 5.25 12M18.75 12C18.7516 13.0271 18.5178 14.0408 18.0666 14.9634M14.1262 15.0938C13.5008 15.5238 12.759 15.7528 12 15.75C11.0054 15.75 10.0516 15.3549 9.34835 14.6517C8.64509 13.9484 8.25 12.9946 8.25 12V8.625M8.55938 4.50563C8.85065 3.83525 9.33148 3.26461 9.94275 2.86387C10.554 2.46312 11.2691 2.24976 12 2.25C12.9946 2.25 13.9484 2.64509 14.6517 3.34835C15.3549 4.05161 15.75 5.00544 15.75 6V12C15.7502 12.1312 15.7434 12.2623 15.7294 12.3928" stroke="black" stroke-width="2.5" stroke-linecap="round" stroke-linejoin="round"/>
</svg>
