<svg width="24" height="24" viewBox="0 0 24 24" fill="none" xmlns="http://www.w3.org/2000/svg">
<path d="M4.5 3.75L19.5 20.25M7.5 8.25V15.75M7.5 8.25H3C2.80109 8.25 2.61032 8.32902 2.46967 8.46967C2.32902 8.61032 2.25 8.80109 2.25 9V15C2.25 15.1989 2.32902 15.3897 2.46967 15.5303C2.61032 15.671 2.80109 15.75 3 15.75H7.5M7.5 8.25L8.13937 7.75312M7.5 15.75L14.25 21V14.475M18 10.0191C18.4825 10.5669 18.7487 11.2719 18.7487 12.0019C18.7487 12.7319 18.4825 13.4369 18 13.9847M10.5141 5.90531L14.25 3V10.0153M20.7816 7.5C21.8885 8.73755 22.5004 10.3397 22.5004 12C22.5004 13.6603 21.8885 15.2624 20.7816 16.5" stroke="black" stroke-width="2.5" stroke-linecap="round" stroke-linejoin="round"/>
</svg>
